<svg xmlns="http://www.w3.org/2000/svg" viewBox="0 0 100 100" width="64" height="64">
  <!-- Placa base -->
  <rect x="10" y="20" width="80" height="60" rx="8" fill="#F59E0B" opacity="0.2" stroke="#F59E0B" stroke-width="3"/>
  
  <!-- CPU -->
  <rect x="15" y="25" width="25" height="25" rx="3" fill="#F59E0B"/>
  <line x1="20" y1="30" x2="35" y2="30" stroke="white" stroke-width="1"/>
  <line x1="20" y1="35" x2="35" y2="35" stroke="white" stroke-width="1"/>
  <line x1="20" y1="40" x2="35" y2="40" stroke="white" stroke-width="1"/>
  <line x1="20" y1="45" x2="35" y2="45" stroke="white" stroke-width="1"/>
  <text x="22" y="60" font-size="8" font-weight="bold" text-anchor="middle" fill="#F59E0B">CPU</text>
  
  <!-- RAM -->
  <rect x="60" y="25" width="25" height="25" rx="3" fill="#F59E0B"/>
  <rect x="65" y="30" width="5" height="5" fill="white" opacity="0.8"/>
  <rect x="72" y="30" width="5" height="5" fill="white" opacity="0.8"/>
  <rect x="65" y="37" width="5" height="5" fill="white" opacity="0.8"/>
  <rect x="72" y="37" width="5" height="5" fill="white" opacity="0.8"/>
  <text x="72" y="60" font-size="8" font-weight="bold" text-anchor="middle" fill="#F59E0B">RAM</text>
  
  <!-- Disco -->
  <rect x="37" y="60" width="26" height="15" rx="3" fill="#F59E0B"/>
  <circle cx="44" cy="68" r="3" fill="white" opacity="0.8"/>
  <circle cx="56" cy="68" r="3" fill="white" opacity="0.8"/>
  <text x="50" y="82" font-size="8" font-weight="bold" text-anchor="middle" fill="#F59E0B">DISK</text>
</svg>